<?xml version="1.0" encoding="UTF-8" standalone="no"?>
<svg
   viewBox="5 0 14 28"
   version="1.1"
   id="svg8"
   sodipodi:docname="number-8.svg"
   width="14"
   height="28"
   inkscape:version="1.1.1 (3bf5ae0d25, 2021-09-20, custom)"
   xmlns:inkscape="http://www.inkscape.org/namespaces/inkscape"
   xmlns:sodipodi="http://sodipodi.sourceforge.net/DTD/sodipodi-0.dtd"
   xmlns="http://www.w3.org/2000/svg"
   xmlns:svg="http://www.w3.org/2000/svg">
  <defs
     id="defs12" />
  <sodipodi:namedview
     id="namedview10"
     pagecolor="#ffffff"
     bordercolor="#666666"
     borderopacity="1.0"
     inkscape:pageshadow="2"
     inkscape:pageopacity="0.0"
     inkscape:pagecheckerboard="0"
     showgrid="false"
     width="14px"
     inkscape:zoom="34.708333"
     inkscape:cx="11.985594"
     inkscape:cy="11.985594"
     inkscape:window-width="1920"
     inkscape:window-height="1006"
     inkscape:window-x="0"
     inkscape:window-y="0"
     inkscape:window-maximized="1"
     inkscape:current-layer="svg8" />
  <g
     id="g6">
    <path
       fill="none"
       d="M 0,0 H 24 V 24 H 0 Z"
       id="path2" />
    <path
       d="m 12,1.5 a 5.5,5.5 0 0 1 3.352,9.86 c 1.888,1.05 3.148,2.96 3.148,5.14 0,3.314 -2.91,6 -6.5,6 -3.59,0 -6.5,-2.686 -6.5,-6 0,-2.181 1.261,-4.09 3.147,-5.141 A 5.5,5.5 0 0 1 12,1.5 Z m 0,11 c -2.52,0 -4.5,1.828 -4.5,4 0,2.172 1.98,4 4.5,4 2.52,0 4.5,-1.828 4.5,-4 0,-2.172 -1.98,-4 -4.5,-4 z m 0,-9 a 3.5,3.5 0 1 0 0,7 3.5,3.5 0 0 0 0,-7 z"
       id="path4" />
  </g>
</svg>
