<?xml version="1.0" encoding="UTF-8" standalone="no"?>
<svg
   viewBox="5 0 14 28"
   version="1.1"
   id="svg8"
   sodipodi:docname="number-0.svg"
   width="14"
   height="28"
   inkscape:version="1.1.1 (3bf5ae0d25, 2021-09-20, custom)"
   xmlns:inkscape="http://www.inkscape.org/namespaces/inkscape"
   xmlns:sodipodi="http://sodipodi.sourceforge.net/DTD/sodipodi-0.dtd"
   xmlns="http://www.w3.org/2000/svg"
   xmlns:svg="http://www.w3.org/2000/svg">
  <defs
     id="defs12" />
  <sodipodi:namedview
     id="namedview10"
     pagecolor="#ffffff"
     bordercolor="#666666"
     borderopacity="1.0"
     inkscape:pageshadow="2"
     inkscape:pageopacity="0.0"
     inkscape:pagecheckerboard="0"
     showgrid="false"
     viewbox-width="24"
     viewbox-height="24"
     viewbox-x="5"
     fit-margin-left="0"
     lock-margins="true"
     fit-margin-top="0"
     fit-margin-right="0"
     fit-margin-bottom="0"
     inkscape:zoom="34.708333"
     inkscape:cx="5.5606243"
     inkscape:cy="13.426171"
     inkscape:window-width="1920"
     inkscape:window-height="1006"
     inkscape:window-x="0"
     inkscape:window-y="0"
     inkscape:window-maximized="1"
     inkscape:current-layer="svg8"
     width="14px" />
  <g
     id="g6">
    <path
       fill="none"
       d="M 0,0 H 24 V 24 H 0 Z"
       id="path2" />
    <path
       d="m 12,1.5 c 1.321,0 2.484,0.348 3.447,0.994 0.963,0.645 1.726,1.588 2.249,2.778 0.522,1.19 0.804,2.625 0.804,4.257 v 4.942 c 0,1.632 -0.282,3.068 -0.804,4.257 -0.523,1.19 -1.286,2.133 -2.25,2.778 C 14.484,22.152 13.321,22.5 12,22.5 10.679,22.5 9.516,22.152 8.553,21.506 7.59,20.861 6.827,19.918 6.304,18.728 5.782,17.538 5.5,16.103 5.5,14.471 V 9.529 C 5.5,7.897 5.782,6.461 6.304,5.272 6.827,4.082 7.59,3.139 8.554,2.494 9.515,1.848 10.678,1.5 12,1.5 Z m 0,2 C 11.084,3.5 10.306,3.726 9.667,4.155 9.03,4.582 8.509,5.225 8.135,6.075 7.723,7.015 7.5,8.183 7.5,9.529 v 4.942 c 0,1.346 0.223,2.514 0.635,3.453 0.374,0.851 0.895,1.494 1.532,1.921 0.639,0.429 1.417,0.655 2.333,0.655 0.916,0 1.694,-0.226 2.333,-0.655 0.637,-0.427 1.158,-1.07 1.532,-1.92 0.412,-0.94 0.635,-2.108 0.635,-3.454 V 9.529 C 16.5,8.183 16.277,7.015 15.865,6.076 15.491,5.225 14.97,4.582 14.333,4.155 13.694,3.726 12.916,3.5 12,3.5 Z"
       id="path4" />
  </g>
</svg>
